# xmcd CD database file
#
# Track frame offsets:
#	150
#	26488
#	62620
#	100835
#	128939
#	152542
#	177500
#	197979
#
# Disc length: 3069 seconds
#
# Revision: 0
# Processed by: cddbd v1.5.1PL0 Copyright (c) Steve Scherf et al.
# Submitted via: CDex 1.51
#
DISCID=670bfb08
DTITLE=jaja - I miss you
DYEAR=1900
DGENRE=Jazz
TTITLE0=Al Way
TTITLE1=Doll
TTITLE2=I miss you
TTITLE3=Rain
TTITLE4=Think to the Wind
TTITLE5=You are above all
TTITLE6=Education
TTITLE7=Only your eyes
EXTD=
EXTT0=
EXTT1=
EXTT2=
EXTT3=
EXTT4=
EXTT5=
EXTT6=
EXTT7=
PLAYORDER=
